<svg width="146" height="6" viewBox="0 0 146 6" fill="none" xmlns="http://www.w3.org/2000/svg">
<path d="M4.15673 3.81343C4.15673 4.00871 4.18394 4.16571 4.23834 4.28824C4.29275 4.40694 4.42098 4.46821 4.61917 4.46821H4.75129V4.5984H4.15285C4.03627 4.5984 3.943 4.58691 3.86528 4.56777C3.78756 4.54862 3.72539 4.51033 3.67876 4.44906C3.63212 4.39163 3.60104 4.31121 3.58161 4.21166C3.56218 4.1121 3.5544 3.97808 3.5544 3.81343V2.50386H1.56476V4.5984H0.966321V1.06793C0.966321 0.872648 0.939116 0.715654 0.884712 0.593121C0.830308 0.474418 0.702071 0.413151 0.503884 0.413151H0.371761V0.282959H0.970205C1.08679 0.282959 1.18005 0.294447 1.25777 0.313593C1.33549 0.332738 1.39767 0.371032 1.4443 0.432298C1.49093 0.489735 1.52202 0.570146 1.54145 0.673533C1.56088 0.77692 1.56865 0.90711 1.56865 1.06793V2.24731H3.55829V0.286789H4.15673V3.81343Z" fill="#58595B"/>
<path d="M10.3977 4.5984H10.0674L9.83419 4.33801H9.79922C9.71372 4.42226 9.60103 4.49501 9.45336 4.56393C9.30569 4.63286 9.13471 4.66349 8.93652 4.66349C8.79662 4.66349 8.65673 4.64817 8.52071 4.61371C8.3847 4.57925 8.26424 4.51798 8.15932 4.42991C8.0544 4.34184 7.9689 4.21931 7.90284 4.06615C7.83678 3.91298 7.80569 3.71769 7.80569 3.48412V2.30858C7.80569 2.11329 7.77849 1.95247 7.72409 1.83376C7.66968 1.71506 7.54144 1.65379 7.34325 1.65379H7.27719V1.52361H7.80958C7.92616 1.52361 8.01942 1.53509 8.09714 1.55424C8.17486 1.57338 8.23704 1.61168 8.28367 1.67294C8.33031 1.73038 8.36139 1.81462 8.38082 1.91418C8.39637 2.01756 8.40802 2.14775 8.40802 2.30858V3.48412C8.40802 3.64877 8.42745 3.78662 8.4702 3.89766C8.51295 4.00871 8.56735 4.10061 8.6373 4.16953C8.70724 4.23846 8.78497 4.28823 8.87046 4.31887C8.95595 4.3495 9.04533 4.36482 9.1386 4.36482C9.27072 4.36482 9.39507 4.33036 9.50777 4.26143C9.62046 4.19251 9.71761 4.1121 9.8031 4.0202V1.51978H10.4016V4.5984H10.3977Z" fill="#58595B"/>
<path d="M14.5052 1.78397C14.5907 1.69973 14.7034 1.62698 14.851 1.55805C14.9987 1.48913 15.1697 1.4585 15.3679 1.4585C15.535 1.4585 15.6904 1.48913 15.8303 1.55039C15.9702 1.61166 16.0829 1.73419 16.1645 1.91799C16.2811 1.76866 16.4288 1.65761 16.6075 1.5772C16.7863 1.49679 16.9728 1.4585 17.1593 1.4585C17.2837 1.4585 17.4003 1.47381 17.513 1.50827C17.6256 1.53891 17.7228 1.604 17.8083 1.69207C17.8938 1.78014 17.9598 1.90268 18.0104 2.05584C18.0609 2.20901 18.0881 2.40046 18.0881 2.63787V4.59839H17.4896V2.63787C17.4896 2.31239 17.443 2.08264 17.3497 1.95245C17.2565 1.82226 17.1243 1.75717 16.9573 1.75717C16.8912 1.75717 16.8251 1.76866 16.7552 1.79546C16.6852 1.82226 16.6231 1.85673 16.5609 1.89502C16.4987 1.93331 16.4404 1.98309 16.3899 2.03287C16.3394 2.08265 16.2927 2.13242 16.2655 2.17837C16.285 2.22432 16.2927 2.29708 16.2966 2.39281C16.3005 2.48853 16.3005 2.56895 16.3005 2.63404V4.59456H15.7021V2.63404C15.7021 2.30857 15.6554 2.07882 15.5622 1.94863C15.4689 1.81844 15.3368 1.75334 15.1697 1.75334C15.0376 1.75334 14.9132 1.7878 14.8005 1.85672C14.6878 1.92565 14.5907 2.00606 14.5052 2.09796V4.59839H13.9067V2.30856C13.9067 2.11328 13.8795 1.95245 13.8251 1.83375C13.7707 1.71505 13.6425 1.65378 13.4443 1.65378H13.3122V1.52359H13.9106C14.0777 1.52359 14.206 1.54657 14.2914 1.59252C14.3769 1.63847 14.4391 1.70356 14.4741 1.78397H14.5052Z" fill="#58595B"/>
<path d="M23.4158 4.5983L23.1826 4.30345H23.1477C23.0816 4.38769 22.9728 4.46811 22.8212 4.54469C22.6697 4.6251 22.4676 4.66339 22.2189 4.66339C22.1256 4.66339 22.0246 4.64807 21.9119 4.62127C21.8031 4.59447 21.6982 4.54469 21.601 4.47576C21.5039 4.40684 21.4223 4.31111 21.3562 4.19624C21.2902 4.07753 21.2552 3.9282 21.2552 3.75206C21.2552 3.57592 21.3018 3.42658 21.3951 3.30788C21.4883 3.18917 21.6127 3.09728 21.7681 3.02835C21.9236 2.95943 22.1023 2.90965 22.3044 2.88284C22.5065 2.85604 22.7241 2.84072 22.9495 2.84072H23.1477C23.1477 2.6148 23.1282 2.42718 23.0933 2.28167C23.0583 2.13616 23.0078 2.02129 22.9456 1.94088C22.8834 1.86046 22.8096 1.80303 22.7241 1.7724C22.6386 1.74176 22.5453 1.72645 22.4482 1.72645C22.2617 1.72645 22.1062 1.76474 21.9819 1.84515C21.8575 1.92556 21.7681 2.07107 21.7215 2.28167H21.4223C21.4223 2.1668 21.43 2.06341 21.4417 1.96385C21.4534 1.8643 21.5039 1.77622 21.5894 1.69198C21.6282 1.65369 21.6865 1.61923 21.7604 1.5886C21.8342 1.55796 21.9158 1.53499 22.0013 1.51584C22.0907 1.4967 22.1839 1.48521 22.285 1.47755C22.386 1.46989 22.487 1.46606 22.5881 1.46606C22.7396 1.46606 22.8834 1.48138 23.0233 1.51584C23.1632 1.54648 23.2876 1.6154 23.3964 1.71113C23.5052 1.81069 23.5907 1.94854 23.6567 2.12851C23.7228 2.30848 23.7539 2.54588 23.7539 2.8369V4.60213H23.4158V4.5983ZM23.1516 3.09345H22.9534C22.6231 3.09345 22.3627 3.15471 22.1723 3.27342C21.9857 3.39212 21.8886 3.55294 21.8886 3.74823C21.8886 3.85161 21.908 3.94351 21.943 4.02393C21.978 4.10434 22.0246 4.16943 22.0829 4.21921C22.1412 4.26899 22.2072 4.31111 22.2811 4.33409C22.3549 4.35706 22.4365 4.36855 22.5181 4.36855C22.6813 4.36855 22.8096 4.32643 22.9067 4.24602C23 4.16561 23.0816 4.07371 23.1477 3.97415V3.09345H23.1516Z" fill="#58595B"/>
<path d="M27.2241 2.30856C27.2241 2.11328 27.1969 1.95245 27.1425 1.83375C27.0881 1.71505 26.9598 1.65378 26.7616 1.65378H26.6295V1.52359H27.228C27.3951 1.52359 27.5233 1.54657 27.6088 1.59252C27.6943 1.63847 27.7565 1.70356 27.7914 1.78397H27.8264C27.9119 1.69973 28.0246 1.62698 28.1723 1.55805C28.3199 1.48913 28.4909 1.4585 28.6891 1.4585C28.829 1.4585 28.9689 1.47381 29.1049 1.50827C29.2409 1.53891 29.3614 1.604 29.4663 1.69207C29.5712 1.78014 29.6567 1.90268 29.7228 2.05584C29.7889 2.20901 29.82 2.40046 29.82 2.63787V4.59839H29.2215V2.63787C29.2215 2.47705 29.2021 2.3392 29.1593 2.22432C29.1166 2.10945 29.0622 2.01755 28.9922 1.94863C28.9223 1.8797 28.8446 1.82992 28.7591 1.79929C28.6736 1.76866 28.5842 1.75334 28.4909 1.75334C28.3588 1.75334 28.2345 1.7878 28.1218 1.85672C28.0091 1.92565 27.9119 2.00606 27.8264 2.09796V4.59839H27.228V2.30856H27.2241Z" fill="#58595B"/>
<path d="M38.5984 2.60342H38.1321V4.5984H37.5337V1.06793C37.5337 0.872647 37.5065 0.715653 37.4521 0.593121C37.3977 0.474418 37.2694 0.413151 37.0712 0.413151H36.9391V0.282959H38.6645C38.8044 0.282959 38.9715 0.294448 39.1619 0.317423C39.3523 0.340398 39.535 0.394005 39.706 0.478246C39.8769 0.562487 40.0246 0.68119 40.1451 0.834355C40.2655 0.987521 40.3238 1.19813 40.3238 1.45851C40.3238 1.64613 40.2889 1.80696 40.2228 1.93715C40.1567 2.06734 40.0712 2.17455 39.9663 2.26262C39.8614 2.34686 39.7487 2.41579 39.6205 2.46174C39.4922 2.50769 39.3718 2.54598 39.2591 2.57278L39.9547 3.71769C40.0402 3.85937 40.1179 3.97425 40.1917 4.06615C40.2655 4.15805 40.3355 4.23463 40.4093 4.29206C40.4793 4.3495 40.5492 4.39162 40.6231 4.41843C40.6969 4.44523 40.7707 4.46055 40.8562 4.47203V4.60223C40.8212 4.61754 40.7668 4.63669 40.693 4.64817C40.6192 4.66349 40.5415 4.66732 40.456 4.66732C40.3394 4.66732 40.2345 4.652 40.1334 4.62137C40.0324 4.59074 39.9391 4.53713 39.8459 4.46438C39.7526 4.39162 39.6593 4.29206 39.5622 4.16953C39.465 4.047 39.3679 3.89766 39.2591 3.71769L38.5984 2.60342ZM38.6295 2.37367C38.7228 2.37367 38.8277 2.35835 38.9443 2.32006C39.0609 2.2856 39.1736 2.23199 39.2785 2.15924C39.3834 2.08648 39.4728 1.99458 39.5466 1.87971C39.6205 1.76484 39.6554 1.62316 39.6554 1.45851C39.6554 1.29002 39.6205 1.14069 39.5466 1.02198C39.4728 0.903279 39.3834 0.799894 39.2785 0.72714C39.1736 0.654386 39.0609 0.600778 38.9443 0.562487C38.8277 0.524196 38.7228 0.508879 38.6295 0.508879C38.544 0.508879 38.4586 0.516539 38.3692 0.528026C38.2798 0.539514 38.1982 0.554828 38.1321 0.573974V2.30857C38.1982 2.32389 38.2759 2.33921 38.3692 2.35452C38.4624 2.36984 38.544 2.37367 38.6295 2.37367Z" fill="#58595B"/>
<path d="M46.1295 3.15863H44.1166C44.1166 3.3386 44.136 3.50326 44.1749 3.65642C44.2137 3.80959 44.272 3.93978 44.3497 4.05082C44.4275 4.16187 44.5207 4.24611 44.6334 4.30738C44.7422 4.36864 44.8705 4.39927 45.0104 4.39927C45.228 4.39927 45.4067 4.35333 45.5505 4.26143C45.6943 4.16953 45.8225 4.03934 45.9391 3.87468L46.0712 3.97424C45.9197 4.22314 45.7487 4.39928 45.5505 4.50266C45.3523 4.60605 45.1308 4.65966 44.8782 4.65966C44.6451 4.65966 44.4391 4.61754 44.2681 4.5333C44.0972 4.44906 43.9495 4.33418 43.8329 4.18867C43.7163 4.04317 43.6269 3.87468 43.5725 3.68323C43.5181 3.49177 43.487 3.28117 43.487 3.05907C43.487 2.83698 43.5181 2.63021 43.5764 2.43493C43.6347 2.23964 43.7241 2.07116 43.8368 1.92948C43.9534 1.78397 44.0894 1.67293 44.2565 1.58486C44.4236 1.49679 44.6062 1.4585 44.8161 1.4585C45.2668 1.4585 45.601 1.58103 45.8187 1.82992C46.0363 2.07881 46.1451 2.43493 46.1451 2.89442L46.1295 3.15863ZM45.5117 2.89825C45.5117 2.51917 45.4534 2.22815 45.3407 2.02521C45.2241 1.82226 45.0492 1.7227 44.8161 1.7227C44.715 1.7227 44.6218 1.75334 44.5363 1.81078C44.4508 1.86821 44.3808 1.95245 44.3186 2.05584C44.2565 2.15923 44.2098 2.28559 44.171 2.42727C44.136 2.57278 44.1166 2.72977 44.1166 2.89825H45.5117Z" fill="#58595B"/>
<path d="M51.5661 3.81332C51.5661 3.95117 51.535 4.0737 51.4767 4.18092C51.4184 4.28431 51.3368 4.37238 51.2357 4.44513C51.1347 4.51788 51.0104 4.57149 50.8666 4.60978C50.7228 4.64807 50.5673 4.66722 50.4041 4.66722C50.1399 4.66722 49.9223 4.64425 49.7552 4.5983C49.5881 4.55235 49.4598 4.48725 49.3782 4.40684C49.2927 4.3226 49.2461 4.2307 49.2306 4.12731C49.215 4.02393 49.2111 3.88608 49.2111 3.72142H49.3433C49.3782 3.93586 49.4715 4.10434 49.6231 4.22687C49.7746 4.3494 49.9922 4.41067 50.272 4.41067C50.5246 4.41067 50.7072 4.36855 50.8277 4.28048C50.9443 4.19241 51.0026 4.08519 51.0026 3.955C51.0026 3.82481 50.9521 3.71377 50.8549 3.6257C50.7539 3.53763 50.6062 3.44956 50.408 3.36531L50.0117 3.20066C49.7591 3.1011 49.5648 2.9824 49.4249 2.84455C49.285 2.7067 49.215 2.53056 49.215 2.31613C49.215 2.17445 49.2422 2.05575 49.2966 1.94854C49.351 1.84515 49.4288 1.75708 49.5259 1.68432C49.6231 1.61157 49.7396 1.55796 49.8718 1.51967C50.0039 1.48138 50.1515 1.46606 50.3109 1.46606C50.5635 1.46606 50.7694 1.48904 50.9365 1.53499C51.0997 1.58094 51.2241 1.64603 51.3096 1.72645C51.3951 1.81069 51.4417 1.90258 51.4572 2.00597C51.4728 2.10936 51.4767 2.24721 51.4767 2.41186H51.3446C51.3096 2.19743 51.2163 2.02895 51.0686 1.90642C50.921 1.78388 50.715 1.72262 50.4469 1.72262C50.2293 1.72262 50.0661 1.76474 49.9534 1.85281C49.8407 1.94088 49.7824 2.04809 49.7824 2.17828C49.7824 2.29316 49.829 2.39654 49.9223 2.48844C50.0155 2.58417 50.1438 2.66458 50.3148 2.73351L50.7111 2.89816C50.9948 3.01303 51.2085 3.13557 51.3562 3.26959C51.4961 3.40361 51.5661 3.5874 51.5661 3.81332Z" fill="#58595B"/>
<path d="M54.601 3.06273C54.601 2.84065 54.6321 2.63387 54.6982 2.43859C54.7604 2.2433 54.8575 2.07482 54.9819 1.93314C55.1062 1.79146 55.2617 1.67659 55.4404 1.58852C55.6192 1.50428 55.8251 1.46216 56.0622 1.46216C56.2914 1.46216 56.4974 1.50428 56.68 1.58852C56.8627 1.67276 57.0142 1.78764 57.1425 1.93314C57.2668 2.07865 57.364 2.24713 57.4262 2.43859C57.4883 2.63004 57.5233 2.84065 57.5233 3.06273C57.5233 3.28482 57.4922 3.4916 57.4262 3.68688C57.3601 3.88217 57.2668 4.05065 57.1425 4.19233C57.0181 4.33784 56.8627 4.44888 56.68 4.53695C56.4974 4.62119 56.2914 4.66331 56.0622 4.66331C55.829 4.66331 55.6192 4.62119 55.4404 4.53695C55.2617 4.45271 55.1101 4.33784 54.9819 4.19233C54.8575 4.04682 54.7604 3.87834 54.6982 3.68688C54.6321 3.4916 54.601 3.28482 54.601 3.06273ZM56.8899 3.06273C56.8899 2.87511 56.8705 2.69897 56.8316 2.53432C56.7927 2.36966 56.7344 2.22799 56.6606 2.10928C56.5868 1.99058 56.5013 1.89485 56.4003 1.82593C56.2992 1.757 56.1865 1.72254 56.0622 1.72254C55.9378 1.72254 55.8251 1.757 55.7241 1.82593C55.623 1.89485 55.5337 1.99058 55.4637 2.10928C55.3899 2.22799 55.3355 2.36966 55.2927 2.53432C55.25 2.69897 55.2345 2.87511 55.2345 3.06273C55.2345 3.25036 55.2539 3.4265 55.2927 3.59116C55.3316 3.75581 55.3899 3.89748 55.4637 4.01619C55.5376 4.13489 55.623 4.23062 55.7241 4.29954C55.8251 4.36847 55.9378 4.40293 56.0622 4.40293C56.1865 4.40293 56.2992 4.36847 56.4003 4.29954C56.5013 4.23062 56.5907 4.13489 56.6606 4.01619C56.7344 3.89748 56.7889 3.75581 56.8316 3.59116C56.8705 3.42267 56.8899 3.25036 56.8899 3.06273Z" fill="#58595B"/>
<path d="M63.3523 4.5984H63.022L62.7888 4.33801H62.7539C62.6684 4.42226 62.5557 4.49501 62.408 4.56393C62.2604 4.63286 62.0894 4.66349 61.8912 4.66349C61.7513 4.66349 61.6114 4.64817 61.4754 4.61371C61.3394 4.57925 61.2189 4.51798 61.114 4.42991C61.0091 4.34184 60.9236 4.21931 60.8575 4.06615C60.7914 3.91298 60.7604 3.71769 60.7604 3.48412V2.30858C60.7604 2.11329 60.7332 1.95247 60.6788 1.83376C60.6243 1.71506 60.4961 1.65379 60.2979 1.65379H60.2319V1.52361H60.7642C60.8808 1.52361 60.9741 1.53509 61.0518 1.55424C61.1295 1.57338 61.1917 1.61168 61.2383 1.67294C61.285 1.73038 61.3161 1.81462 61.3355 1.91418C61.351 2.01756 61.3627 2.14775 61.3627 2.30858V3.48412C61.3627 3.64877 61.3821 3.78662 61.4249 3.89766C61.4676 4.00871 61.522 4.10061 61.592 4.16953C61.6619 4.23846 61.7396 4.28823 61.8251 4.31887C61.9106 4.3495 62 4.36482 62.0933 4.36482C62.2254 4.36482 62.3497 4.33036 62.4624 4.26143C62.5751 4.19251 62.6723 4.1121 62.7578 4.0202V1.51978H63.3562V4.5984H63.3523Z" fill="#58595B"/>
<path d="M66.8148 2.30856C66.8148 2.11328 66.7876 1.95245 66.7332 1.83375C66.6788 1.71505 66.5505 1.65378 66.3523 1.65378H66.2863V1.52359H66.8187C66.9857 1.52359 67.114 1.54656 67.1995 1.59634C67.285 1.64612 67.3471 1.71888 67.3821 1.81843H67.4171C67.4832 1.73419 67.5842 1.65378 67.7163 1.5772C67.8484 1.49679 68.0155 1.4585 68.2137 1.4585C68.2798 1.4585 68.3497 1.46615 68.4275 1.48147C68.5013 1.49679 68.5635 1.52359 68.614 1.55805C68.6645 1.59251 68.7034 1.63463 68.7383 1.68058C68.7733 1.73036 68.8083 1.78397 68.8433 1.8529L68.579 2.04818C68.5285 1.98309 68.4585 1.93331 68.3614 1.90268C68.2642 1.87204 68.1593 1.8529 68.0466 1.8529C67.9145 1.8529 67.7902 1.88353 67.6813 1.94097C67.5687 1.9984 67.4832 2.07882 67.4171 2.17837V4.59839H66.8187V2.30856H66.8148Z" fill="#58595B"/>
<path d="M73.0751 1.4585C73.3083 1.4585 73.5065 1.47381 73.6697 1.5121C73.8329 1.54657 73.9534 1.604 74.0389 1.68824C74.0777 1.72654 74.1088 1.77248 74.136 1.81843C74.1593 1.86438 74.1749 1.92182 74.1865 1.98692C74.1943 2.05201 74.2021 2.12859 74.2021 2.22049C74.206 2.30856 74.2059 2.41578 74.2059 2.53831H74.0738C74.0544 2.25879 73.965 2.05201 73.8057 1.92182C73.6425 1.7878 73.4443 1.7227 73.2111 1.7227C73.044 1.7227 72.9003 1.75717 72.7798 1.82609C72.6593 1.89502 72.5622 1.99075 72.4806 2.10945C72.3989 2.22815 72.3407 2.36983 72.3057 2.53448C72.2707 2.69914 72.2474 2.87528 72.2474 3.0629C72.2474 3.25053 72.2668 3.42667 72.3057 3.59133C72.3445 3.75598 72.4028 3.89765 72.4806 4.01636C72.5622 4.13506 72.6593 4.23079 72.7798 4.29972C72.9003 4.36864 73.044 4.4031 73.2111 4.4031C73.4443 4.4031 73.6347 4.35715 73.7824 4.26525C73.93 4.17335 74.0583 4.04316 74.1749 3.87851L74.307 3.97807C74.1554 4.22696 73.9806 4.4031 73.7785 4.50649C73.5764 4.60988 73.3433 4.66348 73.079 4.66348C72.8303 4.66348 72.6166 4.62136 72.43 4.53712C72.2474 4.45288 72.0958 4.33801 71.9754 4.1925C71.8549 4.04699 71.7655 3.87851 71.7072 3.68705C71.6489 3.49177 71.6179 3.28499 71.6179 3.0629C71.6179 2.84081 71.6489 2.63404 71.7072 2.43875C71.7655 2.24347 71.8549 2.07499 71.9754 1.93331C72.0958 1.7878 72.2474 1.67676 72.43 1.58869C72.6127 1.50062 72.8264 1.4585 73.0751 1.4585Z" fill="#58595B"/>
<path d="M79.9184 3.15863H77.9054C77.9054 3.3386 77.9249 3.50326 77.9637 3.65642C78.0026 3.80959 78.0609 3.93978 78.1386 4.05082C78.2163 4.16187 78.3096 4.24611 78.4223 4.30738C78.535 4.36864 78.6593 4.39927 78.7992 4.39927C79.0168 4.39927 79.1956 4.35333 79.3394 4.26143C79.4832 4.16953 79.6114 4.03934 79.728 3.87468L79.8601 3.97424C79.7085 4.22314 79.5376 4.39928 79.3394 4.50266C79.1412 4.60605 78.9197 4.65966 78.6671 4.65966C78.4339 4.65966 78.228 4.61754 78.057 4.5333C77.886 4.44906 77.7383 4.33418 77.6218 4.18867C77.5052 4.04317 77.4158 3.87468 77.3614 3.68323C77.307 3.49177 77.2759 3.28117 77.2759 3.05907C77.2759 2.83698 77.307 2.63021 77.3653 2.43493C77.4236 2.23964 77.5129 2.07116 77.6256 1.92948C77.7422 1.78397 77.8782 1.67293 78.0453 1.58486C78.2085 1.50061 78.3951 1.4585 78.6049 1.4585C79.0557 1.4585 79.3899 1.58103 79.6075 1.82992C79.8251 2.07881 79.9339 2.43493 79.9339 2.89442L79.9184 3.15863ZM79.3005 2.89825C79.3005 2.51917 79.2422 2.22815 79.1295 2.02521C79.0129 1.82226 78.8381 1.7227 78.6049 1.7227C78.5039 1.7227 78.4106 1.75334 78.3251 1.81078C78.2396 1.86821 78.1697 1.95245 78.1075 2.05584C78.0453 2.15923 77.9987 2.28559 77.9598 2.42727C77.9249 2.57278 77.9054 2.72977 77.9054 2.89825H79.3005Z" fill="#58595B"/>
<path d="M92.3731 4.89324C92.1321 4.89324 91.9339 4.86644 91.7746 4.81283C91.6153 4.75922 91.487 4.67498 91.3977 4.56011C91.3044 4.44523 91.2383 4.29973 91.2034 4.12359C91.1645 3.94362 91.1451 3.73301 91.1451 3.48795V0.968375L89.4857 4.5984H89.3536L87.6282 0.90328V4.5984H87.364V0.282959H87.9935L89.5868 3.68324L91.1451 0.282959H91.7435V3.48795C91.7435 3.88618 91.794 4.19634 91.8951 4.42226C91.9961 4.64818 92.1554 4.76305 92.3731 4.76305V4.89324Z" fill="#58595B"/>
<path d="M97.2772 4.5983L97.044 4.30345H97.0091C96.943 4.38769 96.8342 4.46811 96.6826 4.54469C96.5311 4.6251 96.329 4.66339 96.0803 4.66339C95.987 4.66339 95.886 4.64807 95.7733 4.62127C95.6606 4.59447 95.5596 4.54469 95.4624 4.47576C95.3653 4.40684 95.2837 4.31111 95.2176 4.19624C95.1516 4.07753 95.1166 3.9282 95.1166 3.75206C95.1166 3.57592 95.1632 3.42658 95.2565 3.30788C95.3497 3.18917 95.4741 3.09728 95.6295 3.02835C95.785 2.95943 95.9637 2.90965 96.1658 2.88284C96.3679 2.85604 96.5855 2.84072 96.8109 2.84072H97.0091C97.0091 2.6148 96.9935 2.42718 96.9547 2.28167C96.9197 2.13616 96.8692 2.02129 96.807 1.94088C96.7448 1.86046 96.671 1.80303 96.5855 1.7724C96.5 1.74176 96.4067 1.72645 96.3096 1.72645C96.123 1.72645 95.9676 1.76474 95.8433 1.84515C95.715 1.92556 95.6295 2.07107 95.5829 2.28167H95.2837C95.2837 2.1668 95.2914 2.06341 95.3031 1.96385C95.3148 1.8643 95.3653 1.77622 95.4508 1.69198C95.4896 1.65369 95.5479 1.61923 95.6218 1.5886C95.6956 1.55796 95.7772 1.53499 95.8627 1.51584C95.9521 1.4967 96.0453 1.48521 96.1464 1.47755C96.2474 1.46989 96.3446 1.46606 96.4495 1.46606C96.601 1.46606 96.7448 1.48138 96.8847 1.51584C97.0246 1.54648 97.149 1.6154 97.2578 1.71113C97.3666 1.80686 97.4521 1.94854 97.5181 2.12851C97.5842 2.30848 97.6153 2.54588 97.6153 2.8369V4.60213H97.2772V4.5983ZM97.0129 3.09345H96.8148C96.4845 3.09345 96.2241 3.15471 96.0337 3.27342C95.8471 3.39212 95.75 3.55294 95.75 3.74823C95.75 3.85161 95.7655 3.94351 95.8044 4.02393C95.8394 4.10434 95.886 4.16943 95.9443 4.21921C96.0026 4.27282 96.0686 4.31111 96.1425 4.33409C96.2163 4.35706 96.2979 4.36855 96.3834 4.36855C96.5466 4.36855 96.6749 4.32643 96.772 4.24602C96.8692 4.16561 96.9469 4.07371 97.0129 3.97415V3.09345Z" fill="#58595B"/>
<path d="M101.089 2.30856C101.089 2.11328 101.062 1.95245 101.008 1.83375C100.953 1.71505 100.825 1.65378 100.627 1.65378H100.495V1.52359H101.093C101.26 1.52359 101.389 1.54657 101.474 1.59252C101.56 1.63847 101.622 1.70356 101.657 1.78397H101.688C101.773 1.69973 101.886 1.62698 102.034 1.55805C102.181 1.48913 102.352 1.4585 102.55 1.4585C102.69 1.4585 102.83 1.47381 102.966 1.50827C103.102 1.54274 103.223 1.604 103.328 1.69207C103.433 1.78014 103.518 1.90268 103.584 2.05584C103.65 2.20901 103.681 2.40046 103.681 2.63787V4.59839H103.083V2.63787C103.083 2.47705 103.063 2.3392 103.021 2.22432C102.978 2.10945 102.924 2.01755 102.854 1.94863C102.784 1.8797 102.706 1.82992 102.62 1.79929C102.535 1.76866 102.446 1.75334 102.352 1.75334C102.22 1.75334 102.096 1.7878 101.983 1.85672C101.87 1.92565 101.773 2.00606 101.688 2.09796V4.59839H101.089V2.30856Z" fill="#58595B"/>
<path d="M108.993 4.5983L108.76 4.30345H108.725C108.659 4.38769 108.55 4.46811 108.399 4.54469C108.247 4.6251 108.045 4.66339 107.797 4.66339C107.703 4.66339 107.602 4.64807 107.49 4.62127C107.377 4.59447 107.276 4.54469 107.179 4.47576C107.082 4.40684 107 4.31111 106.934 4.19624C106.868 4.07753 106.833 3.9282 106.833 3.75206C106.833 3.57592 106.879 3.42658 106.973 3.30788C107.066 3.18917 107.19 3.09728 107.346 3.02835C107.501 2.95943 107.68 2.90965 107.882 2.88284C108.084 2.85604 108.302 2.84072 108.527 2.84072H108.725C108.725 2.6148 108.71 2.42718 108.671 2.28167C108.636 2.13616 108.585 2.02129 108.523 1.94088C108.461 1.86046 108.387 1.80303 108.302 1.7724C108.216 1.74176 108.123 1.72645 108.026 1.72645C107.839 1.72645 107.684 1.76474 107.56 1.84515C107.431 1.92556 107.346 2.07107 107.299 2.28167H107C107 2.1668 107.008 2.06341 107.019 1.96385C107.031 1.8643 107.082 1.77622 107.167 1.69198C107.206 1.65369 107.264 1.61923 107.338 1.5886C107.412 1.55796 107.493 1.53499 107.579 1.51584C107.668 1.4967 107.762 1.48521 107.863 1.47755C107.964 1.46989 108.061 1.46606 108.166 1.46606C108.317 1.46606 108.461 1.48138 108.601 1.51584C108.741 1.54648 108.865 1.6154 108.974 1.71113C109.083 1.80686 109.168 1.94854 109.234 2.12851C109.3 2.30848 109.332 2.54588 109.332 2.8369V4.60213H108.993V4.5983ZM108.729 3.09345H108.531C108.201 3.09345 107.94 3.15471 107.75 3.27342C107.563 3.39212 107.466 3.55294 107.466 3.74823C107.466 3.85161 107.482 3.94351 107.521 4.02393C107.556 4.10434 107.602 4.16943 107.661 4.21921C107.719 4.27282 107.785 4.31111 107.859 4.33409C107.933 4.35706 108.014 4.36855 108.1 4.36855C108.263 4.36855 108.391 4.32643 108.488 4.24602C108.585 4.16561 108.663 4.07371 108.729 3.97415V3.09345Z" fill="#58595B"/>
<path d="M112.6 2.43868C112.6 2.25105 112.631 2.09405 112.701 1.96769C112.771 1.84133 112.856 1.74177 112.969 1.66519C113.082 1.59244 113.214 1.53883 113.369 1.50437C113.525 1.47373 113.688 1.45459 113.859 1.45459H115.087V1.61924L114.655 1.68434V1.7188C114.788 1.78389 114.9 1.87962 114.986 2.00216C115.075 2.12469 115.118 2.2702 115.118 2.43868C115.118 2.6263 115.083 2.7833 115.017 2.90966C114.951 3.03602 114.861 3.13558 114.749 3.21216C114.636 3.28491 114.504 3.33852 114.348 3.37299C114.193 3.40745 114.03 3.42276 113.859 3.42276C113.392 3.42276 113.163 3.49935 113.163 3.65251C113.163 3.80568 113.396 3.88226 113.859 3.88226C114.057 3.88226 114.247 3.90141 114.422 3.9397C114.601 3.97799 114.753 4.03925 114.889 4.11967C115.021 4.20008 115.126 4.30346 115.203 4.43366C115.281 4.56385 115.32 4.71701 115.32 4.89315C115.32 5.08078 115.281 5.23777 115.207 5.36796C115.133 5.49816 115.028 5.60154 114.9 5.68195C114.768 5.76237 114.617 5.8198 114.438 5.85426C114.259 5.88873 114.069 5.90787 113.859 5.90787C113.649 5.90787 113.459 5.89256 113.28 5.85426C113.101 5.8198 112.949 5.76237 112.817 5.68195C112.685 5.60154 112.584 5.49816 112.51 5.36796C112.436 5.23777 112.398 5.08078 112.398 4.89315C112.398 4.67872 112.468 4.50258 112.611 4.35707C112.755 4.21157 112.926 4.10818 113.124 4.04309C113.058 4.00862 112.996 3.95884 112.942 3.89758C112.887 3.83248 112.86 3.75207 112.86 3.65251C112.86 3.55295 112.887 3.47637 112.942 3.42276C112.996 3.36916 113.047 3.32703 113.093 3.29257C112.961 3.22748 112.845 3.12409 112.743 2.97858C112.65 2.83308 112.6 2.65311 112.6 2.43868ZM113.56 4.10818C113.392 4.17327 113.256 4.269 113.152 4.3877C113.047 4.51024 112.996 4.67872 112.996 4.89315C112.996 5.15353 113.078 5.34499 113.237 5.46752C113.4 5.58622 113.606 5.64749 113.859 5.64749C114.111 5.64749 114.317 5.58622 114.481 5.46752C114.644 5.34882 114.721 5.15736 114.721 4.89315C114.721 4.45663 114.457 4.20774 113.925 4.14264L113.56 4.10818ZM114.523 2.43868C114.523 2.1783 114.457 1.98684 114.329 1.86431C114.201 1.74177 114.045 1.68434 113.859 1.68434C113.766 1.68434 113.68 1.69582 113.598 1.72263C113.517 1.74943 113.451 1.79155 113.389 1.84899C113.33 1.90643 113.28 1.98684 113.245 2.08257C113.21 2.1783 113.19 2.297 113.19 2.43485C113.19 2.5727 113.206 2.6914 113.245 2.78713C113.28 2.88286 113.326 2.95944 113.389 3.0207C113.447 3.07814 113.517 3.12026 113.598 3.14707C113.68 3.17387 113.766 3.18536 113.859 3.18536C113.952 3.18536 114.038 3.17387 114.119 3.14707C114.201 3.12026 114.267 3.07814 114.329 3.0207C114.387 2.96327 114.438 2.88286 114.473 2.78713C114.508 2.69906 114.523 2.58036 114.523 2.43868Z" fill="#58595B"/>
<path d="M120.889 3.15863H118.876C118.876 3.3386 118.895 3.50326 118.934 3.65642C118.973 3.80959 119.031 3.93978 119.109 4.05082C119.187 4.16187 119.28 4.24611 119.392 4.30738C119.505 4.36864 119.63 4.39927 119.769 4.39927C119.987 4.39927 120.166 4.35333 120.31 4.26143C120.453 4.16953 120.582 4.03934 120.698 3.87468L120.83 3.97424C120.679 4.22314 120.508 4.39928 120.31 4.50266C120.111 4.60605 119.89 4.65966 119.637 4.65966C119.404 4.65966 119.198 4.61754 119.027 4.5333C118.856 4.44906 118.709 4.33418 118.592 4.18867C118.475 4.04317 118.386 3.87468 118.332 3.68323C118.273 3.48794 118.246 3.28117 118.246 3.05907C118.246 2.83698 118.277 2.63021 118.335 2.43493C118.394 2.23964 118.483 2.07116 118.596 1.92948C118.709 1.7878 118.852 1.67293 119.016 1.58486C119.179 1.50061 119.365 1.4585 119.575 1.4585C120.026 1.4585 120.36 1.58103 120.578 1.82992C120.795 2.07881 120.904 2.43493 120.904 2.89442L120.889 3.15863ZM120.271 2.89825C120.271 2.51917 120.212 2.22815 120.1 2.02521C119.983 1.82226 119.808 1.7227 119.575 1.7227C119.474 1.7227 119.381 1.75334 119.295 1.81078C119.21 1.86821 119.14 1.95245 119.078 2.05584C119.016 2.15923 118.965 2.28559 118.93 2.42727C118.895 2.57278 118.876 2.72977 118.876 2.89825H120.271Z" fill="#58595B"/>
<path d="M124.817 1.78397C124.903 1.69973 125.016 1.62698 125.163 1.55805C125.311 1.48913 125.482 1.4585 125.68 1.4585C125.847 1.4585 126.003 1.48913 126.142 1.55039C126.282 1.61166 126.395 1.73419 126.477 1.91799C126.593 1.76866 126.741 1.65761 126.92 1.5772C127.098 1.49679 127.285 1.4585 127.471 1.4585C127.596 1.4585 127.712 1.47381 127.825 1.50827C127.938 1.53891 128.035 1.604 128.12 1.69207C128.206 1.78014 128.272 1.90268 128.323 2.05584C128.373 2.20901 128.4 2.40046 128.4 2.63787V4.59839H127.802V2.63787C127.802 2.31239 127.755 2.08264 127.662 1.95245C127.569 1.82226 127.437 1.75717 127.269 1.75717C127.203 1.75717 127.137 1.76866 127.067 1.79546C126.997 1.82226 126.935 1.85673 126.873 1.89502C126.811 1.93714 126.753 1.98309 126.702 2.03287C126.652 2.08265 126.605 2.13242 126.578 2.17837C126.593 2.22432 126.605 2.29708 126.609 2.39281C126.613 2.48853 126.613 2.56895 126.613 2.63404V4.59456H126.014V2.63404C126.014 2.30857 125.968 2.07882 125.874 1.94863C125.781 1.81844 125.649 1.75334 125.482 1.75334C125.35 1.75334 125.225 1.7878 125.113 1.85672C125 1.92565 124.903 2.00606 124.817 2.09796V4.59839H124.219V2.30856C124.219 2.11328 124.192 1.95245 124.137 1.83375C124.083 1.71505 123.955 1.65378 123.756 1.65378H123.624V1.52359H124.223C124.39 1.52359 124.518 1.54657 124.604 1.59252C124.689 1.63847 124.751 1.70356 124.786 1.78397H124.817Z" fill="#58595B"/>
<path d="M134.253 3.15863H132.24C132.24 3.3386 132.259 3.50326 132.298 3.65642C132.337 3.80959 132.395 3.93978 132.473 4.05082C132.55 4.16187 132.644 4.24611 132.756 4.30738C132.869 4.36864 132.993 4.39927 133.133 4.39927C133.351 4.39927 133.53 4.35333 133.674 4.26143C133.817 4.16953 133.946 4.03934 134.062 3.87468L134.194 3.97424C134.043 4.22314 133.872 4.39928 133.674 4.50266C133.475 4.60605 133.254 4.65966 133.001 4.65966C132.768 4.65966 132.562 4.61754 132.391 4.5333C132.22 4.44906 132.073 4.33418 131.956 4.18867C131.839 4.04317 131.75 3.87468 131.696 3.68323C131.637 3.48794 131.61 3.28117 131.61 3.05907C131.61 2.83698 131.641 2.63021 131.699 2.43493C131.758 2.23964 131.847 2.07116 131.96 1.92948C132.072 1.7878 132.216 1.67293 132.38 1.58486C132.543 1.50061 132.729 1.4585 132.939 1.4585C133.39 1.4585 133.724 1.58103 133.942 1.82992C134.159 2.07881 134.268 2.43493 134.268 2.89442L134.253 3.15863ZM133.635 2.89825C133.635 2.51917 133.576 2.22815 133.464 2.02521C133.347 1.82226 133.172 1.7227 132.939 1.7227C132.838 1.7227 132.745 1.75334 132.659 1.81078C132.574 1.86821 132.504 1.95245 132.442 2.05584C132.38 2.15923 132.329 2.28559 132.294 2.42727C132.259 2.57278 132.24 2.72977 132.24 2.89825H133.635Z" fill="#58595B"/>
<path d="M137.583 2.30856C137.583 2.11328 137.556 1.95245 137.501 1.83375C137.447 1.71505 137.319 1.65378 137.12 1.65378H136.988V1.52359H137.587C137.754 1.52359 137.882 1.54657 137.968 1.59252C138.053 1.63847 138.115 1.70356 138.15 1.78397H138.181C138.267 1.69973 138.38 1.62698 138.527 1.55805C138.675 1.48913 138.846 1.4585 139.044 1.4585C139.184 1.4585 139.324 1.47381 139.46 1.50827C139.596 1.54274 139.716 1.604 139.821 1.69207C139.926 1.78014 140.012 1.90268 140.078 2.05584C140.144 2.20901 140.175 2.40046 140.175 2.63787V4.59839H139.576V2.63787C139.576 2.47705 139.557 2.3392 139.514 2.22432C139.471 2.10945 139.417 2.01755 139.347 1.94863C139.277 1.8797 139.199 1.82992 139.114 1.79929C139.028 1.76866 138.939 1.75334 138.846 1.75334C138.714 1.75334 138.589 1.7878 138.477 1.85672C138.364 1.92565 138.267 2.00606 138.181 2.09796V4.59839H137.583V2.30856Z" fill="#58595B"/>
<path d="M143.676 1.7841H143.21V1.52372H143.676V0.934031L144.006 0.543457H144.271V1.52372H145.067V1.7841H144.271V3.81354C144.271 4.20411 144.426 4.40323 144.737 4.40323C144.854 4.40323 144.947 4.39174 145.021 4.36494C145.095 4.33814 145.168 4.3075 145.234 4.27304L145.3 4.40323C145.266 4.43003 145.223 4.45684 145.176 4.48747C145.13 4.51811 145.075 4.54491 145.005 4.57171C144.935 4.59852 144.861 4.61766 144.772 4.63681C144.683 4.65595 144.582 4.66361 144.465 4.66361C144.232 4.66361 144.038 4.59469 143.89 4.46067C143.742 4.32665 143.668 4.10839 143.668 3.81354V1.7841H143.676Z" fill="#58595B"/>
</svg>
