<svg width="146" height="15" viewBox="0 0 146 15" fill="none" xmlns="http://www.w3.org/2000/svg">
<path d="M12.2202 11.8819C12.4806 12.5061 12.7953 13.0001 13.1684 13.3715C13.5414 13.7391 13.9728 13.9535 14.4624 14.0109V14.5432C14.3459 14.57 14.1865 14.5968 13.9767 14.6159C13.7668 14.6389 13.5842 14.6466 13.4249 14.6466C13.079 14.6466 12.7098 14.6159 12.3135 14.5509C11.9171 14.4858 11.5285 14.3594 11.1477 14.1679C10.7668 13.9765 10.4054 13.7008 10.0674 13.337C9.72927 12.9771 9.43005 12.4908 9.17357 11.8819L8.67616 10.6911H2.90544L1.12564 14.5585H0.0453339L6.41839 0.528564H7.3899L12.2202 11.8819ZM3.36399 9.7338H8.26425L5.87824 4.18539L3.36399 9.7338Z" fill="black"/>
<path d="M26.9987 13.6051V14.5623H16.7513V3.2932C16.7513 2.65373 16.6619 2.14063 16.4832 1.75006C16.3044 1.35949 15.8886 1.1642 15.2435 1.1642H15.0259V0.528564H17.614C17.987 0.528564 18.3018 0.574514 18.5544 0.666414C18.807 0.758313 19.0091 0.911478 19.1567 1.12208C19.3044 1.33268 19.4132 1.61987 19.4676 1.97215C19.5259 2.32826 19.5531 2.76478 19.5531 3.28937V13.6012H26.9987V13.6051Z" fill="black"/>
<path d="M37.3316 0.528564C37.7047 0.528564 38.0117 0.578343 38.2487 0.677901C38.4858 0.777458 38.6723 0.90382 38.8083 1.06081C38.9443 1.21781 39.0376 1.39778 39.0881 1.60455C39.1386 1.81133 39.1619 2.0181 39.1619 2.23253V4.03988H38.513C38.513 3.13238 38.2798 2.48143 37.8135 2.08319C37.3472 1.68496 36.6826 1.48968 35.8161 1.48968H32.342V6.80452H37.9495V7.7618H32.3497V13.6089H36.0376C36.8303 13.6089 37.5026 13.4366 38.0544 13.0881C38.6062 12.7397 39.0725 12.1079 39.4456 11.1851L40.0285 11.3995L39.4028 13.0805C39.2435 13.5361 39.0376 13.8961 38.7889 14.1641C38.5363 14.4322 38.1166 14.5662 37.5259 14.5662H29.544V3.2932C29.544 2.65374 29.4547 2.14063 29.2759 1.75006C29.0972 1.35949 28.6813 1.1642 28.0363 1.1642H27.8187V0.528564H37.3316Z" fill="black"/>
<path d="M48.7876 5.71704L52.9495 0.528564H54.3523L49.4132 6.6705L52.8018 11.7939C52.9728 12.0619 53.1787 12.3338 53.4158 12.6018C53.6528 12.8699 53.8977 13.1149 54.1503 13.337C54.4028 13.5553 54.6593 13.7391 54.9275 13.8808C55.1917 14.0224 55.4482 14.1067 55.693 14.1373V14.5623H53.3186C52.9145 14.5623 52.5376 14.4934 52.1878 14.3479C51.8342 14.2062 51.5116 14.0224 51.2163 13.7965C50.921 13.5706 50.6567 13.3179 50.4197 13.0422C50.1826 12.7665 49.9767 12.4946 49.8057 12.2227L47.6256 8.90671L43.0751 14.5623H41.6723L46.9806 7.94943L43.9184 3.2932C43.7474 3.02516 43.5415 2.75329 43.3044 2.48525C43.0674 2.21721 42.8225 1.97215 42.5699 1.75006C42.3174 1.5318 42.0609 1.35183 41.7927 1.20632C41.5246 1.06464 41.272 0.980402 41.0272 0.949769V0.528564H43.4016C43.8057 0.528564 44.1826 0.601319 44.5324 0.742997C44.886 0.884675 45.2086 1.06847 45.5039 1.29439C45.7992 1.52031 46.0635 1.77303 46.3005 2.04873C46.5376 2.32443 46.7435 2.60013 46.9145 2.86817L48.7876 5.71704Z" fill="black"/>
<path d="M68.4624 11.8819C68.7228 12.5061 69.0376 13.0001 69.4106 13.3715C69.7837 13.7391 70.215 13.9535 70.7047 14.0109V14.5432C70.5881 14.57 70.4288 14.5968 70.2189 14.6159C70.0091 14.6389 69.8264 14.6466 69.6671 14.6466C69.3212 14.6466 68.9521 14.6159 68.5557 14.5509C68.1593 14.4858 67.7707 14.3594 67.3899 14.1679C67.0091 13.9765 66.6477 13.7008 66.3096 13.337C65.9715 12.9771 65.6723 12.4908 65.4158 11.8819L64.9184 10.6911H59.1477L57.3679 14.5585H56.2876L62.6606 0.528564H63.6321L68.4624 11.8819ZM59.6062 9.7338H64.5065L62.1205 4.18539L59.6062 9.7338Z" fill="black"/>
<path d="M72.9935 3.2932C72.9935 2.65373 72.9041 2.14063 72.7254 1.75006C72.5466 1.35949 72.1308 1.1642 71.4857 1.1642H71.2681V0.528564H77.0933C77.7694 0.528564 78.4806 0.563026 79.2306 0.63578C79.9767 0.708533 80.6645 0.869358 81.2902 1.12591C81.9158 1.38246 82.4326 1.75772 82.8446 2.25168C83.2565 2.74946 83.4585 3.41573 83.4585 4.25048C83.4585 4.54916 83.3964 4.85166 83.2759 5.16565C83.1554 5.47581 82.965 5.77065 82.7163 6.04635C82.4637 6.32205 82.1529 6.57094 81.7759 6.7892C81.4028 7.00746 80.9637 7.1836 80.4624 7.30996C81.1658 7.38272 81.7526 7.52057 82.2189 7.72351C82.6852 7.93028 83.0622 8.17918 83.342 8.47785C83.6218 8.77652 83.8199 9.11349 83.9365 9.48874C84.0492 9.864 84.1075 10.2584 84.1075 10.6681C84.1075 11.4761 83.921 12.1347 83.5479 12.6439C83.1749 13.1532 82.6852 13.5515 82.079 13.8348C81.4767 14.1182 80.7927 14.3096 80.0311 14.4092C79.2694 14.5087 78.5078 14.5585 77.7461 14.5585H73.0013V3.2932H72.9935ZM77.0933 1.37863C76.9223 1.37863 76.7552 1.38629 76.5958 1.40161C76.4365 1.41692 76.3005 1.43607 76.1878 1.4667C76.044 1.49351 75.9158 1.51648 75.7992 1.5318V6.88493H77.4158C78.294 6.88493 79.0168 6.67815 79.5842 6.26844C80.1515 5.85872 80.4352 5.15033 80.4352 4.14327C80.4352 3.61868 80.3381 3.17833 80.1438 2.82605C79.9495 2.47377 79.6969 2.18658 79.3899 1.97598C79.079 1.76155 78.7254 1.61221 78.3212 1.52031C77.921 1.42458 77.5091 1.37863 77.0933 1.37863ZM77.4158 13.7084C78.6088 13.7084 79.5181 13.4519 80.1438 12.9426C80.7694 12.4333 81.0842 11.7096 81.0842 10.7753C81.0842 8.81864 79.8601 7.84221 77.4158 7.84221H75.7992V13.4978C75.9275 13.54 76.0712 13.5744 76.2306 13.6051C76.5181 13.6778 76.8795 13.7123 77.3109 13.7123H77.4158V13.7084Z" fill="black"/>
<path d="M86.4974 7.54377C86.4974 6.49459 86.6645 5.51816 87.0026 4.61065C87.3407 3.70315 87.8225 2.91818 88.4482 2.25191C89.0738 1.58564 89.82 1.06104 90.6904 0.67813C91.5609 0.295217 92.5363 0.10376 93.6127 0.10376C94.693 0.10376 95.6645 0.295217 96.535 0.67813C97.4055 1.06104 98.1477 1.58564 98.7694 2.25191C99.3873 2.91818 99.8653 3.70315 100.203 4.61065C100.541 5.51816 100.709 6.49459 100.709 7.54377C100.709 8.59296 100.538 9.56939 100.203 10.4769C99.8653 11.3844 99.3873 12.1694 98.7694 12.8356C98.1516 13.5019 97.4055 14.0265 96.535 14.4094C95.6645 14.7923 94.6891 14.9838 93.6127 14.9838C92.5324 14.9838 91.5609 14.7923 90.6904 14.4094C89.82 14.0265 89.0738 13.5019 88.4482 12.8356C87.8225 12.1694 87.3407 11.3844 87.0026 10.4769C86.6684 9.57322 86.4974 8.59296 86.4974 7.54377ZM97.7396 7.54377C97.7396 5.47604 97.3782 3.87546 96.6593 2.74969C95.9404 1.62393 94.9262 1.06104 93.6166 1.06104C92.307 1.06104 91.2966 1.62393 90.5855 2.74969C89.8744 3.87546 89.5168 5.47604 89.5168 7.54377C89.5168 9.61151 89.8744 11.2121 90.5855 12.3379C91.2966 13.4636 92.307 14.0265 93.6166 14.0265C94.9262 14.0265 95.9404 13.4636 96.6593 12.3379C97.3782 11.2121 97.7396 9.61534 97.7396 7.54377Z" fill="black"/>
<path d="M114.263 11.8819C114.523 12.5061 114.838 13.0001 115.211 13.3715C115.584 13.7391 116.016 13.9535 116.505 14.0109V14.5432C116.389 14.57 116.229 14.5968 116.019 14.6159C115.81 14.6389 115.627 14.6466 115.468 14.6466C115.122 14.6466 114.753 14.6159 114.356 14.5509C113.96 14.4858 113.571 14.3594 113.19 14.1679C112.81 13.9765 112.448 13.7008 112.11 13.337C111.772 12.9771 111.473 12.4908 111.216 11.8819L110.719 10.6911H104.948L103.168 14.5585H102.088L108.461 0.528564H109.433L114.263 11.8819ZM105.411 9.7338H110.311L107.925 4.18539L105.411 9.7338Z" fill="black"/>
<path d="M122.482 8.14088H121.619V14.5623H118.794V3.2932C118.794 2.65374 118.705 2.14063 118.526 1.75006C118.347 1.35949 117.931 1.1642 117.286 1.1642H117.073V0.528564H123.026C123.372 0.528564 123.753 0.543881 124.168 0.570685C124.584 0.597489 125.012 0.662584 125.443 0.762142C125.874 0.861699 126.294 0.999548 126.706 1.17569C127.114 1.35183 127.479 1.58541 127.794 1.87642C128.109 2.16743 128.365 2.51971 128.56 2.94092C128.754 3.3583 128.851 3.85991 128.851 4.43811C128.851 4.98951 128.746 5.46815 128.536 5.87404C128.326 6.2761 128.054 6.61689 127.716 6.89642C127.378 7.17211 127.001 7.3942 126.582 7.56651C126.162 7.73883 125.754 7.87285 125.354 7.96858L127.619 11.6905C127.891 12.1423 128.155 12.5176 128.408 12.8048C128.661 13.0958 128.902 13.3255 129.131 13.494C129.36 13.6625 129.574 13.7889 129.768 13.8654C129.962 13.942 130.137 13.9956 130.297 14.0263V14.5585C130.18 14.616 129.978 14.6657 129.683 14.7079C129.387 14.75 129.104 14.7729 128.832 14.7729C128.459 14.7729 128.093 14.7232 127.744 14.6236C127.39 14.5241 127.044 14.3556 126.706 14.1143C126.368 13.8731 126.03 13.5553 125.692 13.1571C125.354 12.7588 125.004 12.2725 124.646 11.6905L122.482 8.14088ZM123.022 1.37863C122.851 1.37863 122.676 1.38629 122.505 1.40161C122.334 1.41692 122.183 1.43607 122.05 1.4667C121.891 1.49351 121.747 1.51648 121.619 1.5318V7.29082H122.913C123.259 7.29082 123.605 7.24104 123.951 7.14148C124.297 7.04192 124.607 6.8811 124.891 6.65135C125.171 6.42543 125.396 6.1191 125.571 5.73619C125.742 5.35327 125.832 4.88612 125.832 4.33472C125.832 3.78333 125.746 3.31617 125.571 2.94092C125.4 2.56566 125.175 2.25933 124.903 2.02576C124.631 1.79218 124.328 1.62753 123.997 1.52797C123.663 1.42841 123.337 1.37863 123.022 1.37863Z" fill="black"/>
<path d="M137.089 0.528564C138.57 0.528564 139.864 0.689388 140.971 1.00721C142.079 1.32502 143.008 1.78452 143.754 2.37804C144.5 2.97155 145.063 3.69909 145.437 4.55682C145.81 5.41454 145.996 6.38331 145.996 7.4593C145.996 8.50848 145.817 9.4696 145.456 10.3388C145.098 11.2119 144.566 11.9585 143.859 12.5827C143.155 13.2068 142.281 13.6931 141.236 14.0378C140.194 14.3862 138.997 14.5585 137.645 14.5585H132.943V3.2932C132.943 2.65373 132.854 2.14063 132.675 1.75006C132.496 1.35949 132.08 1.1642 131.435 1.1642H131.221V0.528564H137.089ZM137.369 1.37863C137.152 1.37863 136.949 1.38629 136.755 1.40161C136.561 1.41692 136.386 1.43607 136.227 1.4667C136.056 1.49351 135.896 1.51648 135.753 1.5318V13.5629C135.896 13.5897 136.056 13.6204 136.227 13.6472C136.53 13.6893 136.911 13.7123 137.369 13.7123H137.583C138.329 13.7123 139.021 13.5706 139.654 13.2872C140.288 13.0039 140.832 12.598 141.294 12.0657C141.753 11.5335 142.114 10.8864 142.374 10.1205C142.635 9.35472 142.763 8.497 142.763 7.54737C142.763 6.61306 142.639 5.76682 142.386 5.00865C142.133 4.25048 141.78 3.60336 141.317 3.06345C140.859 2.52354 140.307 2.11 139.666 1.81898C139.025 1.52797 138.317 1.38246 137.54 1.38246H137.369V1.37863Z" fill="black"/>
</svg>
