<svg width="55" height="45" viewBox="0 0 55 45" fill="none" xmlns="http://www.w3.org/2000/svg">
<path d="M20.3899 31.0926C20.3899 31.0926 17.2617 32.2183 13.3718 31.0275C13.3718 31.0275 17.3433 30.3382 22.7098 25.9232C29.5803 20.2676 33.8238 19.0155 37.3795 20.8267C35.763 20.7845 32.3355 23.4841 30.1088 31.3683C29.0557 35.1017 29.2383 39.2104 31.7332 42.5302C30.8083 40.0872 30.5518 36.7482 32.7591 32.7276C32.7591 32.7276 33.6179 44.1959 50.7435 44.9962H54.715L27.3575 0L0 45H2.04404C7.08808 44.6056 15.272 41.3623 20.3899 31.0926Z" fill="url(#paint0_linear)"/>
<g style="mix-blend-mode:multiply">
<path d="M30.1088 31.3683C29.0557 35.1018 29.2383 39.2104 31.7332 42.5303C30.8083 40.0873 30.5518 36.7483 32.7591 32.7277V32.0691C32.6775 24.8588 37.3795 20.8229 37.3795 20.8229C35.763 20.7846 32.3355 23.4842 30.1088 31.3683Z" fill="#A7A9AC"/>
</g>
<g style="mix-blend-mode:multiply">
<path d="M8.90285 43.0432C12.9288 41.0712 17.2422 37.4143 20.3899 31.0924C20.3899 31.0924 17.2617 32.2182 13.3718 31.0273C13.4184 34.1787 12.5984 39.283 8.90285 43.0432Z" fill="#A7A9AC"/>
</g>
<defs>
<linearGradient id="paint0_linear" x1="27.3586" y1="47.5755" x2="27.3586" y2="7.57901" gradientUnits="userSpaceOnUse">
<stop stop-color="#FF5C00"/>
<stop offset="1" stop-color="#FF7B39"/>
</linearGradient>
</defs>
</svg>
